#!OML:ASF F:\VICON\USERDATA\INSTALL\rory3\rory3.ASF
:FULLY-SPECIFIED
:DEGREES
477
root 0.0252679 17.9204 -0.81831 1.07998 -8.08624 3.42416
lowerback -0.893821 -1.93566 -4.29277
upperback -0.240665 -2.55806 2.88722
thorax 0.574396 -1.29464 5.35351
lowerneck -23.1666 2.29809 -9.11293
upperneck 12.3646 5.16579 4.43436
head 7.18565 2.46788 3.56613
rclavicle 3.47873e-015 2.22639e-014
rhumerus -34.3487 -6.98118 -75.1959
rradius 35.6119
rwrist 19.2485
rhand -21.4108 6.79962
rfingers 7.12502
rthumb 4.97771 -23.1219
lclavicle 3.47873e-015 2.22639e-014
lhumerus 39.7902 -3.9742 61.5333
lradius 102.291
lwrist -4.3849
lhand -29.7956 14.5408
lfingers 7.12502
lthumb -3.12005 44.4977
rfemur -7.79172 6.7408 12.4919
rtibia 27.6687
rfoot -18.0543 -2.657
rtoes 2.97213
lfemur 1.36506 -1.52244 -24.1285
ltibia 12.101
lfoot -10.5685 3.40901
ltoes -12.1489
478
root 0.0214391 17.9218 -0.81866 1.0726 -8.08504 3.41996
lowerback -0.774612 -1.91336 -4.31691
upperback -0.301698 -2.53207 2.88751
thorax 0.44241 -1.27661 5.37382
lowerneck -23.1208 2.29446 -9.11395
upperneck 12.1454 5.15346 4.44343
head 7.10618 2.46896 3.56044
rclavicle 3.21783e-014 -2.38542e-014
rhumerus -34.4745 -6.93311 -75.2312
rradius 35.5417
rwrist 19.3604
rhand -21.4417 6.56263
rfingers 7.12502
rthumb 4.94782 -23.3596
lclavicle 3.21783e-014 -2.38542e-014
lhumerus 40.0153 -3.94013 61.4897
lradius 102.234
lwrist -4.40344
lhand -29.7009 14.6518
lfingers 7.12502
lthumb -3.02858 44.61
rfemur -7.7711 6.81477 12.5201
rtibia 27.6586
rfoot -18.0743 -2.75255
rtoes 2.94111
lfemur 1.36833 -1.53454 -24.1082
ltibia 12.0852
lfoot -10.5402 3.39484
ltoes -11.8119
479
root 0.0193186 17.922 -0.819111 1.05748 -8.00847 3.53572
lowerback -0.726445 -1.92252 -4.44913
upperback -0.314686 -2.54489 2.85682
thorax 0.407936 -1.28187 5.41871
lowerneck -23.2495 2.28755 -9.01438
upperneck 12.038 5.13958 4.35303
head 7.09749 2.46115 3.51339
rclavicle 1.86112e-014 -2.3059e-014
rhumerus -34.474 -6.9534 -75.2678
rradius 35.4018
rwrist 19.4145
rhand -21.2559 5.85619
rfingers 7.12502
rthumb 5.12726 -24.0618
lclavicle 1.86112e-014 -2.3059e-014
lhumerus 40.2757 -3.79384 61.3889
lradius 102.096
lwrist -4.33557
lhand -29.7186 14.4798
lfingers 7.12502
lthumb -3.04572 44.4378
rfemur -7.75926 6.79528 12.4025
rtibia 27.6647
rfoot -18.1029 -2.76185
rtoes 3.13787
lfemur 1.38788 -1.5788 -24.2235
ltibia 12.0353
lfoot -10.4908 3.3612
ltoes -11.8397
480
root 0.0171192 17.9215 -0.817074 1.03457 -7.96104 3.56915
lowerback -0.768763 -1.92405 -4.51099
upperback -0.269073 -2.54499 2.86406
thorax 0.481747 -1.28521 5.45895
lowerneck -23.3068 2.26477 -9.01621
upperneck 11.826 5.12211 4.29948
head 7.03928 2.45329 3.48935
rclavicle 1.53064e-014 3.18055e-015
rhumerus -34.4197 -7.00179 -75.2826
rradius 35.2651
rwrist 19.4924
rhand -21.1417 5.68203
rfingers 7.12502
rthumb 5.23752 -24.2332
lclavicle 1.53064e-014 3.18055e-015
lhumerus 40.5926 -3.51069 61.2504
lradius 101.964
lwrist -4.22044
lhand -29.8616 14.2846
lfingers 7.12502
lthumb -3.18378 44.2406
rfemur -7.7219 6.79506 12.3829
rtibia 27.6769
rfoot -18.1455 -2.77588
rtoes 3.34424
lfemur 1.45535 -1.62142 -24.2529
ltibia 11.9583
lfoot -10.4455 3.35679
ltoes -11.7382
481
root 0.015699 17.9207 -0.814405 1.05185 -7.94471 3.57336
lowerback -0.862183 -1.91707 -4.49859
upperback -0.220433 -2.53216 2.84204
thorax 0.58113 -1.28263 5.42471
lowerneck -23.1969 2.23858 -8.96069
upperneck 11.3828 5.07242 4.19971
head 6.88324 2.434 3.42702
rclavicle -8.77137e-015 -1.27222e-014
rhumerus -34.3278 -7.12371 -75.3217
rradius 35.0667
rwrist 19.6608
rhand -21.163 5.98262
rfingers 7.12502
rthumb 5.21695 -23.9332
lclavicle -8.77137e-015 -1.27222e-014
lhumerus 40.9126 -3.25224 61.0461
lradius 101.895
lwrist -4.09689
lhand -29.9172 14.0727
lfingers 7.12502
lthumb -3.23746 44.0279
rfemur -7.73355 6.75879 12.3781
rtibia 27.6897
rfoot -18.1599 -2.75965
rtoes 3.53525
lfemur 1.48711 -1.60864 -24.2556
ltibia 11.8781
lfoot -10.39 3.34273
ltoes -11.7279
482
root 0.0145591 17.92 -0.81103 1.06891 -7.90179 3.62245
lowerback -0.95097 -1.92345 -4.54078
upperback -0.182788 -2.5368 2.81645
thorax 0.671026 -1.28841 5.41783
lowerneck -23.0842 2.23981 -8.95714
upperneck 10.9048 5.05949 4.19275
head 6.70908 2.44019 3.40709
rclavicle 1.16041e-014 7.15625e-015
rhumerus -34.2477 -7.1666 -75.3633
rradius 34.91
rwrist 19.685
rhand -21.1371 6.12712
rfingers 7.12502
rthumb 5.24199 -23.788
lclavicle 1.16041e-014 7.15625e-015
lhumerus 41.1904 -3.02436 60.8292
lradius 101.911
lwrist -3.83092
lhand -29.9534 14.1906
lfingers 7.12502
lthumb -3.27249 44.1453
rfemur -7.73188 6.69545 12.3199
rtibia 27.6854
rfoot -18.1607 -2.741
rtoes 3.35017
lfemur 1.48802 -1.61562 -24.3107
ltibia 11.8535
lfoot -10.3456 3.33438
ltoes -11.8386
483
root 0.0131574 17.9202 -0.809395 1.06749 -7.88415 3.64225
lowerback -0.923038 -1.91928 -4.58621
upperback -0.192972 -2.53189 2.82188
thorax 0.646447 -1.28516 5.45071
lowerneck -23.0057 2.25452 -9.11263
upperneck 10.5503 5.08437 4.3936
head 6.5687 2.47466 3.48902
rclavicle -4.31114e-014 3.02153e-014
rhumerus -34.2516 -7.24009 -75.3446
rradius 34.7825
rwrist 19.7264
rhand -21.1069 6.55043
rfingers 7.12502
rthumb 5.27115 -23.364
lclavicle -4.31114e-014 3.02153e-014
lhumerus 41.3882 -2.83671 60.7233
lradius 101.874
lwrist -3.63822
lhand -29.9745 14.3084
lfingers 7.12502
lthumb -3.29282 44.2627
rfemur -7.717 6.67119 12.3034
rtibia 27.6863
rfoot -18.1275 -2.77719
rtoes 2.99006
lfemur 1.47791 -1.65541 -24.3342
ltibia 11.889
lfoot -10.3955 3.36079
ltoes -11.9502
484
root 0.0117164 17.9206 -0.810224 1.05327 -7.88324 3.64254
lowerback -0.857393 -1.90007 -4.61104
upperback -0.210102 -2.5086 2.83546
thorax 0.590627 -1.27159 5.48237
lowerneck -23.0901 2.23771 -9.1674
upperneck 10.4538 5.07685 4.44885
head 6.5479 2.47698 3.51454
rclavicle -2.04003e-014 7.15625e-015
rhumerus -34.2858 -7.33101 -75.3073
rradius 34.6792
rwrist 19.7608
rhand -21.3007 7.33301
rfingers 7.12502
rthumb 5.08398 -22.586
lclavicle -2.04003e-014 7.15625e-015
lhumerus 41.6219 -2.6972 60.6985
lradius 101.762
lwrist -3.60106
lhand -29.931 14.1542
lfingers 7.12502
lthumb -3.25084 44.1091
rfemur -7.69921 6.70022 12.3137
rtibia 27.6756
rfoot -18.1424 -2.77429
rtoes 3.20524
lfemur 1.44889 -1.69588 -24.3339
ltibia 11.9747
lfoot -10.4313 3.39903
ltoes -11.9467
485
root 0.00946176 17.9201 -0.812234 1.06395 -7.87354 3.6013
lowerback -0.88209 -1.88748 -4.58094
upperback -0.16496 -2.49111 2.84275
thorax 0.647825 -1.26549 5.47148
lowerneck -23.338 2.23562 -9.18344
upperneck 10.4263 5.09294 4.50338
head 6.57449 2.49096 3.54223
rclavicle 1.17283e-014 -2.62396e-014
rhumerus -34.1755 -7.46405 -75.3255
rradius 34.558
rwrist 19.7718
rhand -21.3945 7.28869
rfingers 7.12502
rthumb 4.99342 -22.6325
lclavicle 1.17283e-014 -2.62396e-014
lhumerus 41.9765 -2.51844 60.6041
lradius 101.661
lwrist -3.51929
lhand -30.6582 13.6176
lfingers 7.12502
lthumb -3.9531 43.5607
rfemur -7.70507 6.76391 12.3745
rtibia 27.6768
rfoot -18.1824 -2.79814
rtoes 3.4034
lfemur 1.40372 -1.68113 -24.2781
ltibia 12.0567
lfoot -10.452 3.39306
ltoes -12.2446
